#!OML:ASF C:\Vicon Data\Big\jianyuan-13\jianyuan\Session 1\Capture.male.ASF
:FULLY-SPECIFIED
:DEGREES
251
root -4.536752 17.323264 -7.276377 4.158909 11.547381 1.675910
lowerback -11.428242 -0.254787 -3.120456 
upperback 2.440970 0.220807 -1.130879 
thorax 9.039909 -0.025928 0.594929 
lowerneck -1.268965 -3.516513 1.432535 
upperneck 17.955718 -4.568602 -2.019557 
head 5.534484 -2.266031 -1.101028 
rclavicle 0.000000 0.000000 
rhumerus -39.499317 -18.610002 -77.540035 
rradius 38.180624 
rwrist 23.661562 
rhand -19.014760 -18.118433 
rfingers 0.000000 
rthumb 7.290904 -47.972816 
lclavicle 0.000000 0.000000 
lhumerus -37.887463 32.765825 68.762376 
lradius 26.664140 
lwrist -56.103469 
lhand -18.585369 0.095299 
lfingers 0.000000 
lthumb 7.705359 29.934873 
rfemur -44.970420 -2.162575 15.697014 
rtibia 45.184705 
rfoot -3.391127 -7.753942 
rtoes -35.633773 
lfemur 3.672219 -3.521961 -25.636725 
ltibia 18.144741 
lfoot -19.695241 -2.230754 
ltoes -30.226256 
252
root -4.546891 17.312649 -7.182017 4.499196 11.589311 1.900076
lowerback -11.661364 -0.262111 -3.307759 
upperback 2.362384 0.244497 -1.101657 
thorax 9.088842 -0.025416 0.736436 
lowerneck -1.254626 -3.557322 1.306089 
upperneck 17.987892 -4.615166 -2.015849 
head 5.544515 -2.296090 -1.081512 
rclavicle 0.000000 0.000000 
rhumerus -39.505308 -18.494099 -77.513332 
rradius 38.122709 
rwrist 23.734956 
rhand -19.107015 -17.917705 
rfingers 0.000000 
rthumb 7.201898 -47.775167 
lclavicle 0.000000 0.000000 
lhumerus -37.941387 32.919126 68.812995 
lradius 26.744523 
lwrist -56.351057 
lhand -18.417636 -0.030970 
lfingers 0.000000 
lthumb 7.867295 29.802679 
rfemur -43.996425 -1.988486 15.498754 
rtibia 43.639289 
rfoot -3.119870 -8.049692 
rtoes -35.234479 
lfemur 3.735533 -3.441315 -25.749962 
ltibia 18.044551 
lfoot -19.651039 -2.373365 
ltoes -30.101929 
253
root -4.558676 17.301839 -7.086879 4.874313 11.643895 2.027705
lowerback -11.886771 -0.270095 -3.313791 
upperback 2.250633 0.243398 -1.120401 
thorax 9.097972 -0.024781 0.720059 
lowerneck -1.166720 -3.543954 1.258902 
upperneck 17.952679 -4.612521 -1.888211 
head 5.523268 -2.289237 -1.031381 
rclavicle 0.000000 0.000000 
rhumerus -39.577952 -18.500807 -77.568247 
rradius 38.221073 
rwrist 23.955721 
rhand -18.846726 -17.915301 
rfingers 0.000000 
rthumb 7.453076 -47.764009 
lclavicle 0.000000 0.000000 
lhumerus -37.906810 32.709455 68.936322 
lradius 26.772543 
lwrist -55.945095 
lhand -18.654214 0.031174 
lfingers 0.000000 
lthumb 7.638939 29.873197 
rfemur -43.084599 -1.662681 15.361400 
rtibia 42.143919 
rfoot -2.998074 -8.486294 
rtoes -34.853627 
lfemur 3.725005 -3.395349 -25.732776 
ltibia 17.977405 
lfoot -19.575116 -2.499501 
ltoes -30.432631 
254
root -4.571125 17.291961 -6.987757 5.252561 11.620028 2.129484
lowerback -12.102333 -0.218584 -3.263204 
upperback 2.113927 0.310449 -1.123962 
thorax 9.071240 0.011923 0.701615 
lowerneck -1.219870 -3.586445 1.326305 
upperneck 18.117502 -4.643020 -2.087981 
head 5.576252 -2.311988 -1.109990 
rclavicle 0.000000 0.000000 
rhumerus -39.701634 -18.443004 -77.608439 
rradius 38.278600 
rwrist 23.818896 
rhand -18.898414 -17.898089 
rfingers 0.000000 
rthumb 7.403231 -47.748484 
lclavicle 0.000000 0.000000 
lhumerus -37.815400 32.296788 69.191868 
lradius 26.857730 
lwrist -55.467382 
lhand -18.458489 0.162391 
lfingers 0.000000 
lthumb 7.827841 29.997477 
rfemur -42.247144 -1.283805 15.229517 
rtibia 40.740497 
rfoot -2.757997 -9.053050 
rtoes -34.401292 
lfemur 3.695350 -3.405253 -25.707386 
ltibia 17.952340 
lfoot -19.613603 -2.505980 
ltoes -31.301238 
255
root -4.585457 17.282794 -6.886398 5.713765 11.576885 2.232357
lowerback -12.356948 -0.144566 -3.206965 
upperback 1.959806 0.411960 -1.174858 
thorax 9.047343 0.067027 0.636526 
lowerneck -1.302876 -3.621225 1.350338 
upperneck 18.290767 -4.710652 -1.975932 
head 5.646049 -2.334849 -1.087086 
rclavicle 0.000000 0.000000 
rhumerus -39.837575 -18.644972 -77.624458 
rradius 38.318270 
rwrist 24.058319 
rhand -18.765185 -17.848258 
rfingers 0.000000 
rthumb 7.531839 -47.694183 
lclavicle 0.000000 0.000000 
lhumerus -37.835408 32.324252 69.070662 
lradius 26.832381 
lwrist -55.925867 
lhand -18.538054 -0.092443 
lfingers 0.000000 
lthumb 7.751002 29.745493 
rfemur -41.549182 -0.821558 15.092289 
rtibia 39.496110 
rfoot -2.442720 -9.851600 
rtoes -34.240281 
lfemur 3.550199 -3.405796 -25.654314 
ltibia 17.973839 
lfoot -19.612732 -2.608226 
ltoes -31.764263 
256
root -4.600192 17.271600 -6.781153 6.087499 11.425018 2.278128
lowerback -12.545744 -0.089100 -3.043789 
upperback 1.805700 0.464053 -1.174389 
thorax 8.987119 0.102591 0.556438 
lowerneck -1.331258 -3.561700 1.204419 
upperneck 18.449151 -4.634332 -1.883128 
head 5.707965 -2.300164 -1.033598 
rclavicle 0.000000 0.000000 
rhumerus -39.939769 -18.405939 -77.770446 
rradius 38.394230 
rwrist 23.914734 
rhand -18.843307 -17.997561 
rfingers 0.000000 
rthumb 7.456386 -47.846154 
lclavicle 0.000000 0.000000 
lhumerus -37.859281 32.199722 69.158555 
lradius 26.918282 
lwrist -55.268922 
lhand -18.587993 0.267436 
lfingers 0.000000 
lthumb 7.702846 30.107104 
rfemur -40.864266 -0.482960 15.106101 
rtibia 38.377377 
rfoot -2.058633 -10.504647 
rtoes -33.612099 
lfemur 3.528512 -3.353324 -25.556347 
ltibia 17.965569 
lfoot -19.625800 -2.744613 
ltoes -31.705995 
257
root -4.616690 17.256626 -6.673269 6.371997 11.305526 2.358621
lowerback -12.584192 -0.001101 -2.955559 
upperback 1.686985 0.568047 -1.200335 
thorax 8.877424 0.160292 0.500314 
lowerneck -1.440356 -3.612726 1.355704 
upperneck 18.633095 -4.688746 -2.048699 
head 5.775196 -2.326893 -1.118479 
rclavicle 0.000000 0.000000 
rhumerus -40.067838 -18.488542 -77.808123 
rradius 38.463279 
rwrist 23.820638 
rhand -18.958405 -17.872015 
rfingers 0.000000 
rthumb 7.345345 -47.724489 
lclavicle 0.000000 0.000000 
lhumerus -37.990144 32.337378 68.963011 
lradius 26.817968 
lwrist -56.077631 
lhand -18.720677 -0.118081 
lfingers 0.000000 
lthumb 7.574774 29.726248 
rfemur -40.033228 -0.025858 15.028889 
rtibia 37.285907 
rfoot -1.776643 -11.255157 
rtoes -33.330908 
lfemur 3.657392 -3.415651 -25.520724 
ltibia 17.907270 
lfoot -19.565032 -2.732489 
ltoes -32.182266 
258
root -4.632936 17.242327 -6.560150 6.640208 11.142407 2.499349
lowerback -12.693071 0.010048 -2.985998 
upperback 1.621948 0.586424 -1.155431 
thorax 8.868008 0.166936 0.569740 
lowerneck -1.516416 -3.549428 1.229313 
upperneck 18.669807 -4.593933 -2.049004 
head 5.804450 -2.289126 -1.095230 
rclavicle 0.000000 0.000000 
rhumerus -40.031391 -18.262118 -77.846596 
rradius 38.390060 
rwrist 23.965373 
rhand -19.014157 -17.848015 
rfingers 0.000000 
rthumb 7.291482 -47.702375 
lclavicle 0.000000 0.000000 
lhumerus -38.054718 32.410471 69.046707 
lradius 26.946933 
lwrist -55.366898 
lhand -18.546094 -0.007645 
lfingers 0.000000 
lthumb 7.743287 29.830494 
rfemur -39.211050 0.056091 15.076808 
rtibia 36.229847 
rfoot -1.278644 -11.472733 
rtoes -33.654178 
lfemur 3.820591 -3.452920 -25.554441 
ltibia 17.905383 
lfoot -19.577083 -2.721036 
ltoes -32.605508 
259
root -4.651116 17.230148 -6.443592 6.865296 10.989131 2.571914
lowerback -12.835882 0.077222 -2.913295 
upperback 1.633932 0.671903 -1.168650 
thorax 8.961484 0.210866 0.532426 
lowerneck -1.669341 -3.555732 1.358040 
upperneck 18.630988 -4.603534 -2.113325 
head 5.813286 -2.289839 -1.139772 
rclavicle 0.000000 0.000000 
rhumerus -39.910385 -18.286376 -77.974776 
rradius 38.393903 
rwrist 23.789802 
rhand -18.926898 -17.905266 
rfingers 0.000000 
rthumb 7.375682 -47.756662 
lclavicle 0.000000 0.000000 
lhumerus -37.939238 32.258696 69.203468 
lradius 27.035265 
lwrist -54.919403 
lhand -18.544717 -0.006489 
lfingers 0.000000 
lthumb 7.744640 29.831692 
rfemur -38.297566 -0.049773 15.349828 
rtibia 35.232433 
rfoot -1.781227 -10.696936 
rtoes -30.997336 
lfemur 3.925311 -3.412782 -25.486558 
ltibia 18.081779 
lfoot -19.667095 -2.790425 
ltoes -32.874759 
260
root -4.672831 17.224789 -6.322675 7.065414 10.853624 2.690458
lowerback -12.951109 0.046332 -2.943092 
upperback 1.626482 0.635994 -1.123617 
thorax 9.020133 0.190006 0.590685 
lowerneck -1.605008 -3.479104 1.284353 
upperneck 18.431092 -4.496076 -2.096207 
head 5.743468 -2.242152 -1.111975 
rclavicle 0.000000 0.000000 
rhumerus -39.789003 -18.086094 -78.047975 
rradius 38.294541 
rwrist 23.945422 
rhand -18.915162 -17.858085 
rfingers 0.000000 
rthumb 7.387000 -47.709087 
lclavicle 0.000000 0.000000 
lhumerus -38.099528 32.406879 69.175781 
lradius 27.107676 
lwrist -54.932106 
lhand -18.623363 0.115334 
lfingers 0.000000 
lthumb 7.668700 29.956255 
rfemur -37.457804 -0.221331 15.552860 
rtibia 34.405480 
rfoot -3.907610 -9.024337 
rtoes -33.561515 
lfemur 4.267464 -3.394447 -25.459427 
ltibia 17.884604 
lfoot -19.438535 -2.701851 
ltoes -33.788993 
261
root -4.697402 17.219419 -6.199110 7.334007 10.805283 2.875423
lowerback -13.157478 0.052420 -3.049149 
upperback 1.666257 0.675540 -1.172177 
thorax 9.181337 0.202567 0.607522 
lowerneck -1.645755 -3.479076 1.493897 
upperneck 18.214728 -4.508166 -2.123494 
head 5.676536 -2.236999 -1.152869 
rclavicle 0.000000 0.000000 
rhumerus -39.630561 -18.131664 -78.225525 
rradius 38.280447 
rwrist 23.997690 
rhand -18.956310 -17.885659 
rfingers 0.000000 
rthumb 7.347325 -47.738128 
lclavicle 0.000000 0.000000 
lhumerus -38.006849 32.223371 69.244686 
lradius 27.167595 
lwrist -54.834161 
lhand -18.958807 0.142919 
lfingers 0.000000 
lthumb 7.344930 29.995401 
rfemur -36.691115 -0.301237 15.615701 
rtibia 33.562223 
rfoot -4.755925 -8.576377 
rtoes -32.980570 
lfemur 4.579720 -3.522519 -25.503612 
ltibia 17.633282 
lfoot -19.146308 -2.520288 
ltoes -34.404100 
